<?xml version="1.0" standalone="no"?>
<!DOCTYPE svg PUBLIC "-//W3C//DTD SVG 20010904//EN"
 "http://www.w3.org/TR/2001/REC-SVG-20010904/DTD/svg10.dtd">
<svg version="1.0" xmlns="http://www.w3.org/2000/svg"
 width="1080.000000pt" height="1080.000000pt" viewBox="0 0 1080.000000 1080.000000"
 preserveAspectRatio="xMidYMid meet" fill="#000000">

<g fill="springgreen" transform="translate(0.000000,1080.000000) scale(0.100000,-0.100000)" stroke="none">
<path d="M10160 10560 c-103 -11 -168 -18 -210 -24 -56 -9 -255 -34 -395 -51
-71 -8 -159 -20 -195 -25 -36 -6 -117 -17 -180 -26 -63 -9 -126 -18 -140 -20
-14 -2 -41 -6 -60 -8 -19 -2 -60 -8 -90 -11 -30 -4 -71 -9 -90 -11 -55 -6
-226 -31 -332 -49 -53 -9 -116 -18 -140 -21 -24 -2 -59 -6 -79 -8 -33 -4 -157
-25 -369 -62 -47 -8 -101 -17 -120 -19 -19 -3 -55 -9 -80 -14 -38 -9 -136 -27
-480 -92 -30 -6 -82 -17 -115 -24 -33 -8 -103 -24 -155 -36 -52 -11 -176 -41
-275 -66 -99 -25 -207 -51 -240 -59 -33 -8 -109 -30 -170 -48 -60 -19 -144
-44 -185 -56 -186 -53 -644 -208 -775 -261 -156 -63 -382 -157 -465 -194 -163
-72 -584 -287 -696 -355 -36 -22 -68 -40 -70 -40 -16 0 -525 -329 -584 -377
-8 -6 -58 -42 -110 -79 -52 -37 -97 -70 -100 -73 -3 -3 -34 -28 -70 -56 -36
-27 -74 -57 -84 -65 -11 -8 -47 -40 -80 -70 -34 -31 -92 -83 -131 -115 -87
-75 -272 -258 -352 -350 -34 -38 -80 -90 -103 -115 -47 -52 -198 -240 -246
-309 -42 -58 -180 -265 -209 -311 -12 -19 -36 -57 -53 -84 -18 -27 -32 -54
-32 -59 0 -6 -6 -18 -14 -26 -18 -21 -153 -287 -214 -426 -75 -167 -192 -518
-192 -574 0 -10 -9 -44 -21 -77 -20 -57 -24 -80 -54 -264 -21 -128 -54 -383
-62 -485 -13 -163 -5 -806 11 -833 2 -4 7 -52 11 -107 4 -55 9 -103 11 -106 2
-4 8 -35 13 -70 74 -491 224 -1030 400 -1442 80 -186 79 -178 14 -270 -21 -29
-42 -60 -48 -69 -5 -9 -73 -109 -150 -223 -77 -114 -147 -218 -155 -230 -12
-18 -51 -77 -110 -165 -5 -8 -24 -37 -42 -65 -33 -52 -305 -465 -374 -569 -21
-32 -46 -69 -54 -81 -8 -12 -33 -49 -54 -81 -22 -33 -59 -90 -84 -129 -25 -38
-53 -81 -62 -95 -42 -62 -73 -138 -76 -184 -4 -89 59 -164 149 -179 47 -7 134
22 164 56 11 12 72 99 134 192 62 94 122 182 133 196 12 14 27 35 33 45 7 10
36 55 65 99 43 67 317 479 354 534 7 9 56 83 110 165 249 374 227 350 289 336
79 -17 162 -30 197 -30 20 0 49 -5 65 -11 27 -10 119 -23 405 -54 70 -7 132
-16 137 -19 5 -4 45 -7 88 -7 43 0 96 -4 118 -9 39 -9 148 -17 315 -25 47 -2
132 -6 190 -9 209 -12 491 -9 825 10 200 11 221 12 310 24 50 6 108 13 130 15
190 15 666 111 925 186 36 10 82 21 103 25 20 3 39 10 42 14 3 5 23 11 45 15
22 4 42 11 46 16 3 5 12 9 20 9 24 0 288 98 424 157 122 54 370 167 400 183 8
5 59 34 113 64 54 31 100 56 102 56 4 0 205 129 265 170 14 9 54 36 90 60 268
181 662 525 881 771 37 41 83 92 103 114 59 65 276 343 341 438 33 48 97 142
143 210 45 67 86 127 90 132 4 6 28 46 52 90 24 44 48 85 53 90 12 14 53 82
77 130 11 22 52 99 90 170 64 118 123 237 230 460 21 44 55 125 76 180 20 55
56 144 81 198 24 54 55 137 68 185 14 48 50 161 80 252 54 163 83 264 143 490
73 275 105 406 159 665 8 39 19 90 25 115 6 25 14 65 19 90 10 63 27 156 39
215 21 109 32 174 45 265 8 52 16 110 20 127 22 130 92 666 105 813 5 63 14
165 20 225 14 157 38 463 45 580 4 55 8 123 10 150 2 28 6 95 10 150 3 55 10
155 16 222 5 67 10 161 10 209 0 77 -3 90 -26 126 -16 24 -43 47 -68 59 -45
20 -45 20 -157 9z m-154 -425 c6 -25 1 -148 -16 -360 -5 -66 -12 -169 -15
-230 -17 -337 -101 -1134 -151 -1445 -47 -293 -47 -292 -59 -385 -4 -27 -13
-70 -20 -95 -7 -25 -16 -70 -19 -100 -3 -30 -13 -84 -21 -120 -8 -36 -19 -92
-25 -125 -7 -33 -20 -94 -30 -135 -10 -41 -33 -140 -50 -220 -30 -136 -126
-491 -150 -556 -6 -16 -25 -78 -41 -139 -41 -148 -189 -553 -254 -696 -30 -63
-63 -138 -73 -165 -33 -83 -271 -546 -340 -661 -60 -100 -72 -120 -87 -148
-10 -16 -43 -68 -74 -114 -77 -114 -80 -120 -128 -192 -74 -114 -256 -357
-283 -379 -3 -3 -35 -41 -70 -85 -54 -66 -240 -265 -341 -365 -102 -100 -359
-316 -488 -410 -34 -25 -81 -59 -104 -76 -42 -31 -180 -119 -314 -200 -93 -57
-241 -137 -323 -175 -36 -17 -92 -43 -125 -59 -132 -62 -203 -92 -260 -111
-33 -11 -69 -25 -80 -30 -33 -15 -438 -146 -475 -154 -19 -4 -64 -15 -100 -25
-36 -10 -101 -26 -145 -35 -44 -9 -98 -21 -119 -27 -22 -5 -54 -11 -70 -13
-33 -3 -105 -14 -298 -44 -113 -17 -197 -27 -318 -37 -25 -2 -72 -6 -105 -8
-344 -31 -976 -25 -1355 13 -47 5 -96 8 -110 8 -36 0 -224 22 -295 34 -33 5
-94 12 -135 14 -41 1 -86 6 -100 9 -14 4 -41 8 -60 10 -200 22 -205 30 -107
153 34 44 84 108 110 144 171 228 308 409 387 509 50 63 107 137 128 163 20
26 60 76 87 110 28 34 60 74 70 88 24 32 133 168 152 189 43 49 175 208 253
305 56 70 103 125 233 275 117 135 247 282 337 381 113 124 213 238 244 277
32 40 106 82 145 82 20 0 74 7 121 16 47 8 122 21 168 29 45 8 121 22 170 31
254 45 424 74 468 78 52 6 61 7 354 55 102 17 214 35 250 41 36 6 79 13 95 16
36 6 114 19 210 33 39 6 97 15 130 21 33 6 98 17 145 25 47 8 150 25 230 38
80 14 165 28 190 32 25 3 71 11 103 16 31 5 83 13 115 18 257 41 555 95 592
107 80 25 140 101 140 175 0 45 -38 115 -78 146 -33 25 -44 27 -122 28 -47 0
-114 -5 -150 -12 -152 -27 -611 -103 -685 -113 -44 -6 -102 -15 -130 -20 -27
-5 -158 -27 -290 -49 -132 -23 -291 -50 -354 -61 -63 -12 -130 -22 -150 -24
-50 -6 -156 -23 -286 -46 -60 -11 -137 -25 -170 -30 -33 -5 -105 -18 -160 -29
-55 -10 -120 -22 -145 -26 -25 -4 -53 -11 -62 -16 -9 -5 -30 -10 -45 -10 -68
-4 -171 -21 -204 -35 -48 -21 -93 -15 -97 11 -2 15 25 48 94 115 54 52 143
140 199 195 138 136 524 507 612 588 39 36 95 90 125 119 29 29 89 84 133 123
122 106 123 107 173 155 26 25 142 126 257 225 116 99 233 201 260 226 28 26
86 76 130 110 75 60 267 215 364 297 25 20 57 46 71 57 15 11 76 58 135 105
59 47 120 94 136 106 54 39 93 69 148 115 31 25 93 73 139 108 87 66 105 91
121 162 8 36 6 51 -10 88 -26 59 -45 80 -94 102 -95 44 -122 32 -417 -192 -62
-47 -158 -119 -214 -161 -55 -41 -114 -86 -130 -101 -16 -14 -63 -51 -104 -83
-70 -53 -100 -77 -204 -164 -23 -19 -64 -53 -90 -75 -27 -22 -54 -44 -60 -50
-6 -5 -45 -37 -86 -70 -41 -33 -98 -80 -126 -105 -27 -25 -81 -72 -119 -105
-38 -33 -73 -65 -79 -70 -6 -6 -54 -46 -106 -90 -52 -44 -97 -82 -100 -85 -14
-15 -174 -163 -235 -216 -317 -279 -989 -941 -1350 -1330 -55 -59 -122 -131
-150 -160 -75 -78 -133 -141 -209 -229 -39 -44 -95 -107 -126 -140 -109 -119
-227 -251 -298 -335 -59 -68 -125 -143 -133 -150 -8 -7 -88 -99 -129 -149 -57
-69 -70 -84 -98 -116 -15 -17 -47 -55 -72 -85 -24 -30 -60 -73 -80 -96 -59
-67 -82 -96 -149 -179 -36 -44 -73 -88 -83 -98 -10 -10 -18 -21 -18 -25 0 -4
-12 -21 -28 -37 -15 -17 -53 -64 -84 -105 -31 -41 -75 -95 -97 -120 -22 -25
-41 -48 -41 -51 0 -3 -8 -15 -18 -27 -10 -11 -27 -33 -38 -48 -10 -14 -27 -36
-37 -48 -9 -11 -46 -59 -82 -106 -35 -47 -68 -89 -73 -95 -4 -5 -34 -50 -67
-100 -61 -93 -71 -105 -93 -105 -14 0 -16 4 -61 140 -172 511 -260 847 -297
1130 -3 25 -8 58 -10 75 -56 343 -64 877 -19 1200 23 163 42 277 53 325 6 25
15 63 20 85 24 104 37 151 79 290 25 83 64 197 88 255 24 58 55 137 70 175 15
39 34 77 41 86 8 9 25 44 38 77 14 34 34 74 45 88 12 15 21 32 21 38 0 6 13
30 28 53 15 23 43 68 62 100 97 162 258 385 380 527 239 279 501 533 760 736
36 28 72 57 81 64 21 18 157 117 189 139 168 114 375 250 388 255 9 4 42 23
72 43 30 20 90 55 132 77 66 36 148 82 198 111 63 37 425 211 501 241 30 12
86 36 124 54 39 18 108 48 155 66 47 18 99 38 115 45 83 37 104 45 114 45 9 0
41 12 101 39 24 11 535 178 645 211 55 16 177 50 270 74 94 24 208 53 255 65
165 43 236 60 339 81 58 11 107 23 111 25 37 23 1194 223 1500 260 19 2 103
13 185 25 83 12 188 26 235 30 86 9 122 14 375 50 77 11 168 23 202 26 34 3
95 12 135 19 115 21 137 19 144 -10z"/>
</g>
</svg>
