<?xml version="1.0" standalone="no"?>
<!DOCTYPE svg PUBLIC "-//W3C//DTD SVG 20010904//EN"
 "http://www.w3.org/TR/2001/REC-SVG-20010904/DTD/svg10.dtd">
<svg version="1.0" xmlns="http://www.w3.org/2000/svg"
 width="1024.000000pt" height="1024.000000pt" viewBox="0 0 1024.000000 1024.000000"
 preserveAspectRatio="xMidYMid meet">

<g transform="translate(0.000000,1024.000000) scale(0.100000,-0.100000)"
fill="#854e4e" stroke="none">
<path d="M5050 9149 c-226 -37 -390 -277 -336 -490 19 -74 70 -154 121 -188
l35 -24 -5 -91 c-3 -50 -12 -201 -20 -336 -8 -135 -17 -303 -20 -375 -3 -71
-8 -154 -11 -182 -5 -48 -8 -53 -30 -53 -14 0 -36 -11 -49 -25 -34 -33 -33
-77 1 -104 26 -20 38 -21 384 -21 346 0 358 1 384 21 19 15 26 30 26 54 0 37
-21 57 -72 69 -24 6 -28 11 -28 44 0 20 -7 152 -15 292 -8 140 -20 355 -26
478 l-12 223 50 44 c75 65 108 145 107 255 -1 104 -27 179 -88 253 -100 123
-247 180 -396 156z m148 -245 c43 -18 88 -58 108 -96 l14 -27 -195 -3 c-107
-2 -195 1 -195 5 0 16 29 63 52 84 54 51 145 67 216 37z m-108 -971 c0 -214 3
-412 6 -440 l7 -53 -62 0 c-42 0 -61 4 -61 13 0 6 7 100 14 207 8 107 20 285
26 395 14 262 15 265 45 265 l25 0 0 -387z"/>
<path d="M5480 8201 c0 -43 3 -133 7 -201 l6 -123 121 -57 c583 -277 1384
-470 2159 -521 l187 -12 0 -221 c0 -765 -83 -1589 -216 -2150 -180 -757 -502
-1390 -967 -1898 -358 -390 -872 -765 -1570 -1142 l-87 -48 -73 40 c-551 301
-914 539 -1203 789 -244 210 -530 522 -701 763 -564 797 -837 1899 -860 3473
-6 385 -5 397 13 397 149 1 531 36 759 71 547 82 1208 278 1610 476 l80 39 14
192 c8 106 11 195 7 199 -3 3 -72 -26 -154 -65 -581 -281 -1189 -456 -1867
-536 -141 -17 -384 -33 -647 -42 l-168 -6 0 -425 c0 -1546 191 -2606 626
-3476 396 -791 1022 -1425 1939 -1962 219 -129 589 -315 625 -315 40 0 447
207 675 344 726 437 1229 894 1621 1476 99 148 232 379 299 523 84 180 98 214
150 347 226 580 363 1267 414 2090 18 275 32 848 29 1130 l-3 275 -150 2
c-935 15 -1801 218 -2573 602 l-102 50 0 -78z"/>
<path d="M3626 7158 c-3 -17 -38 -220 -76 -451 -39 -231 -73 -424 -76 -428 -3
-5 13 -9 35 -9 l41 0 46 93 c107 213 256 390 384 455 129 65 128 65 1024 55
l805 -8 -144 -187 c-80 -103 -145 -190 -145 -193 0 -3 5 -5 10 -5 18 0 200
-70 327 -126 67 -30 128 -54 136 -54 8 0 61 60 118 133 57 72 141 179 188 237
214 264 347 428 378 463 18 20 33 42 33 47 0 7 -523 10 -1539 10 l-1538 0 -7
-32z"/>
<path d="M4800 6639 c0 -102 1 -111 18 -104 38 17 355 17 476 1 66 -8 120 -14
121 -13 1 1 -1 53 -3 115 l-4 112 -304 0 -304 0 0 -111z"/>
<path d="M4899 6449 c-482 -51 -809 -342 -809 -719 0 -207 91 -372 274 -499
156 -107 393 -204 838 -342 314 -97 397 -129 461 -175 222 -162 165 -498 -108
-629 -125 -60 -225 -79 -420 -79 -138 0 -189 4 -274 23 -198 42 -411 141 -540
251 l-23 20 58 68 c31 37 114 134 183 217 69 82 159 187 199 232 71 80 72 83
50 93 -13 5 -73 30 -134 54 -62 25 -153 64 -203 86 -51 22 -96 40 -100 40 -5
0 -148 -176 -317 -392 -561 -712 -630 -805 -611 -825 4 -4 38 3 75 16 124 40
186 52 320 58 175 8 262 -5 572 -84 311 -79 441 -102 630 -110 632 -25 1078
209 1211 637 34 107 34 296 1 390 -78 226 -249 367 -596 491 -60 22 -212 69
-336 105 -291 84 -385 116 -495 168 -115 55 -182 108 -220 177 -27 49 -30 63
-30 144 0 81 3 95 29 143 116 210 449 271 805 148 252 -87 476 -313 551 -556
17 -54 19 -55 57 -58 l40 -3 6 108 c13 206 66 362 194 566 31 48 54 90 52 92
-3 2 -58 -19 -124 -46 -212 -89 -172 -88 -337 -7 -184 90 -294 133 -421 163
-176 42 -336 53 -508 34z"/>
<path d="M5171 6058 c-25 -34 -168 -215 -274 -347 -46 -57 -56 -75 -46 -82 8
-5 110 -41 228 -80 206 -68 214 -70 231 -52 9 10 66 77 125 148 60 72 131 155
157 186 26 30 48 58 48 62 0 3 -44 31 -98 62 -110 62 -251 121 -309 131 -35 5
-40 3 -62 -28z"/>
<path d="M4912 4807 l-42 -43 0 -321 0 -320 43 -7 c75 -11 331 -19 390 -12
l57 7 0 303 c0 231 -3 306 -12 314 -12 9 -369 122 -387 122 -4 0 -26 -19 -49
-43z"/>
<path d="M6473 4267 c-185 -295 -453 -465 -873 -554 l-85 -18 50 -6 c28 -4
246 -8 486 -8 l436 -1 53 323 c29 177 55 328 57 335 4 8 -7 12 -33 12 -38 0
-41 -3 -91 -83z"/>
<path d="M4860 3595 c0 -33 -5 -103 -10 -155 -13 -124 -42 -184 -118 -246 -31
-26 -58 -50 -60 -54 -8 -21 139 -382 235 -575 67 -134 195 -345 209 -345 7 0
39 42 70 93 120 193 223 408 325 677 l59 155 -22 15 c-55 36 -107 94 -127 140
-28 64 -44 196 -37 285 l6 70 -265 0 -265 0 0 -60z m240 -556 c0 -359 -5 -434
-23 -385 -30 77 -96 272 -122 357 l-32 106 38 57 c44 66 57 105 66 198 5 63 7
67 32 70 14 2 29 2 34 0 4 -2 7 -183 7 -403z"/>
</g>
</svg>
